<svg
      xmlns="http://www.w3.org/2000/svg"
      focusable="false"
      role="img"
      fill="currentColor"
      viewBox="0 0 24 24"
      aria-hidden="true"
      class="gnav-header-1i89ga9 eac13zx0"
    >
      <path
        fill-rule="evenodd"
        d="M2.5 4a.5.5 0 00-.5.5v15a.5.5 0 00.5.5h19a.5.5 0 00.5-.5v-15a.5.5 0 00-.5-.5h-19zm9.367 9.716a.25.25 0 00.265 0l7.75-4.843A.25.25 0 0020 8.66V7.25a.25.25 0 00-.382-.213l-7.485 4.678a.25.25 0 01-.265 0L4.381 7.038A.25.25 0 004 7.25v1.41a.25.25 0 00.117.213l7.75 4.844z"
        clip-rule="evenodd"
      ></path>
    </svg>