<svg
      xmlns="http://www.w3.org/2000/svg"
      focusable="false"
      role="img"
      fill="currentColor"
      viewBox="0 0 24 24"
      aria-hidden="true"
      class="gnav-header-1i89ga9 eac13zx0"
    >
      <path
        fill-rule="evenodd"
        d="M12 2C6.477 2 2 6.477 2 12s4.477 10 10 10 10-4.477 10-10S17.523 2 12 2zm-.002 7c-.516 0-.955.331-1.117.792-.04.117-.143.208-.266.208h-1.53a.235.235 0 01-.239-.264 3.184 3.184 0 016.335.447c0 1.33-.923 2.079-1.443 2.502l-.067.054c-.277.225-.445.361-.567.506-.101.12-.106.173-.106.213v.296a.25.25 0 01-.25.25h-1.5a.25.25 0 01-.25-.25v-.296c0-.643.269-1.136.576-1.501.252-.3.573-.558.809-.748l.076-.062c.575-.467.722-.671.722-.964 0-.653-.53-1.183-1.183-1.183zm-.996 6.25a.25.25 0 01.25-.25h1.5a.25.25 0 01.25.25v1.5a.25.25 0 01-.25.25h-1.5a.25.25 0 01-.25-.25v-1.5z"
        clip-rule="evenodd"
      ></path>
    </svg>