<svg
      xmlns="http://www.w3.org/2000/svg"
      focusable="false"
      role="img"
      fill="currentColor"
      viewBox="0 0 24 24"
      aria-hidden="true"
      class="gnav-header-1i89ga9 eac13zx0"
    >
      <path
        fill-rule="evenodd"
        d="M20.503 3c.276 0 .497.224.497.5v13a.5.5 0 01-.5.5H15l-2.587 3.785a.5.5 0 01-.826 0L9 17H3.5a.5.5 0 01-.5-.5v-13c0-.276.216-.5.492-.5h17.01zM12.2 5.133a.22.22 0 00-.405 0l-1.371 3.204-3.47.317a.22.22 0 00-.125.385l2.62 2.298-.773 3.393a.22.22 0 00.327.238l2.994-1.776 2.995 1.777a.22.22 0 00.327-.238l-.768-3.394 2.62-2.298a.22.22 0 00-.125-.385l-3.47-.317L12.2 5.133z"
        clip-rule="evenodd"
      ></path>
    </svg>