<svg
      xmlns="http://www.w3.org/2000/svg"
      focusable="false"
      role="img"
      fill="currentColor"
      viewBox="0 0 24 24"
      aria-hidden="true"
      class="gnav-header-1i89ga9 eac13zx0"
    >
      <path
        fill-rule="evenodd"
        d="M14.286 2H4.57a.558.558 0 00-.57.556v18.888c0 .312.251.556.571.556H19.43c.32 0 .571-.244.571-.556V7.556L14.286 2zM7 11.75c0 .138.112.25.25.25h9.5a.25.25 0 00.25-.25v-1.5a.25.25 0 00-.25-.25h-9.5a.25.25 0 00-.25.25v1.5zM7.25 17a.25.25 0 01-.25-.25v-1.5a.25.25 0 01.25-.25h7.5a.25.25 0 01.25.25v1.5a.25.25 0 01-.25.25h-7.5z"
        clip-rule="evenodd"
      ></path>
    </svg>