<svg
      xmlns="http://www.w3.org/2000/svg"
      focusable="false"
      role="img"
      fill="currentColor"
      viewBox="0 0 24 24"
      aria-hidden="true"
      class="gnav-header-1i89ga9 eac13zx0"
    >
      <path
        fill-rule="evenodd"
        d="M9.85 2.448A.5.5 0 0110.345 2h3.31a.5.5 0 01.498.448l.253 2.407c1.09.33 2.076.88 2.903 1.594l2.336-1.002a.528.528 0 01.654.209l1.634 2.688a.473.473 0 01-.137.643l-2.08 1.42a7.167 7.167 0 010 3.186l2.08 1.42a.473.473 0 01.137.643L20.3 18.344a.528.528 0 01-.654.209L17.31 17.55a7.994 7.994 0 01-2.903 1.594l-.253 2.407a.5.5 0 01-.497.448h-3.31a.5.5 0 01-.498-.448l-.253-2.407a7.996 7.996 0 01-2.904-1.594l-2.335 1.002a.528.528 0 01-.655-.209l-1.634-2.688a.473.473 0 01.138-.643l2.08-1.42a7.167 7.167 0 010-3.186l-2.08-1.42a.473.473 0 01-.138-.643l1.634-2.688a.528.528 0 01.655-.209L6.692 6.45a7.994 7.994 0 012.904-1.594l.253-2.407zM12 16.363c2.537 0 4.593-1.953 4.593-4.363S14.537 7.637 12 7.637C9.465 7.637 7.408 9.59 7.408 12s2.057 4.363 4.593 4.363z"
        clip-rule="evenodd"
      ></path>
    </svg>